HIERARCHY
ROOT Hips
{
	OFFSET 0.000000 0.000000 0.000000
	CHANNELS 6 Xposition Yposition Zposition Zrotation Yrotation Xrotation 
	JOINT LHipJoint
	{
		OFFSET 0.000000 0.000000 0.000000
		CHANNELS 3 Zrotation Yrotation Xrotation
		JOINT LeftUpLeg
		{
			OFFSET 1.363060 -1.794630 0.839290
			CHANNELS 3 Zrotation Yrotation Xrotation
			JOINT LeftLeg
			{
				OFFSET 2.448110 -6.726130 0.000000
				CHANNELS 3 Zrotation Yrotation Xrotation
				JOINT LeftFoot
				{
					OFFSET 2.562200 -7.039590 0.000000
					CHANNELS 3 Zrotation Yrotation Xrotation
					JOINT LeftToeBase
					{
						OFFSET 0.157640 -0.433110 2.322550
						CHANNELS 3 Zrotation Yrotation Xrotation
						End Site
						{
							OFFSET 0.000000 0.000000 0.000000
						}
					}
				}
			}
		}
	}
	JOINT RHipJoint
	{
		OFFSET 0.000000 0.000000 0.000000
		CHANNELS 3 Zrotation Yrotation Xrotation
		JOINT RightUpLeg
		{
			OFFSET -1.305520 -1.794630 0.839290
			CHANNELS 3 Zrotation Yrotation Xrotation
			JOINT RightLeg
			{
				OFFSET -2.542530 -6.985550 0.000000
				CHANNELS 3 Zrotation Yrotation Xrotation
				JOINT RightFoot
				{
					OFFSET -2.568260 -7.056230 0.000000
					CHANNELS 3 Zrotation Yrotation Xrotation
					JOINT RightToeBase
					{
						OFFSET -0.164730 -0.452590 2.363150
						CHANNELS 3 Zrotation Yrotation Xrotation
						End Site
						{
							OFFSET 0.000000 0.000000 0.000000
						}
					}
				}
			}
		}
	}
	JOINT LowerBack
	{
		OFFSET 0.000000 0.000000 0.000000
		CHANNELS 3 Zrotation Yrotation Xrotation
		JOINT Spine
		{
			OFFSET 0.028270 2.035590 -0.193380
			CHANNELS 3 Zrotation Yrotation Xrotation
			JOINT Spine1
			{
				OFFSET 0.056720 2.048850 -0.042750
				CHANNELS 3 Zrotation Yrotation Xrotation
				JOINT Neck
				{
					OFFSET 0.000000 0.000000 0.000000
					CHANNELS 3 Zrotation Yrotation Xrotation
					JOINT Neck1
					{
						OFFSET -0.054170 1.746240 0.172020
						CHANNELS 3 Zrotation Yrotation Xrotation
						JOINT Head
						{
							OFFSET 0.104070 1.761360 -0.123970
							CHANNELS 3 Zrotation Yrotation Xrotation
							End Site
							{
								OFFSET 0.000000 0.000000 0.000000
							}
						}
					}
				}
				JOINT LeftShoulder
				{
					OFFSET 0.000000 0.000000 0.000000
					CHANNELS 3 Zrotation Yrotation Xrotation
					JOINT LeftArm
					{
						OFFSET 3.362410 1.200890 -0.311210
						CHANNELS 3 Zrotation Yrotation Xrotation
						JOINT LeftForeArm
						{
							OFFSET 4.983000 -0.000000 -0.000000
							CHANNELS 3 Zrotation Yrotation Xrotation
							JOINT LeftHand
							{
								OFFSET 3.483560 -0.000000 -0.000000
								CHANNELS 3 Zrotation Yrotation Xrotation
								JOINT LeftFingerBase
								{
									OFFSET 0.000000 0.000000 0.000000
									CHANNELS 3 Zrotation Yrotation Xrotation
									JOINT LeftHandIndex1
									{
										OFFSET 0.715260 -0.000000 -0.000000
										CHANNELS 3 Zrotation Yrotation Xrotation
										End Site
										{
											OFFSET 0.000000 0.000000 0.000000
										}
									}
								}
								JOINT LThumb
								{
									OFFSET 0.000000 0.000000 0.000000
									CHANNELS 3 Zrotation Yrotation Xrotation
									End Site
									{
										OFFSET 0.000000 0.000000 0.000000
									}
								}
							}
						}
					}
				}
				JOINT RightShoulder
				{
					OFFSET 0.000000 0.000000 0.000000
					CHANNELS 3 Zrotation Yrotation Xrotation
					JOINT RightArm
					{
						OFFSET -3.136600 1.374050 -0.404650
						CHANNELS 3 Zrotation Yrotation Xrotation
						JOINT RightForeArm
						{
							OFFSET -5.241900 -0.000000 -0.000000
							CHANNELS 3 Zrotation Yrotation Xrotation
							JOINT RightHand
							{
								OFFSET -3.444170 -0.000000 -0.000000
								CHANNELS 3 Zrotation Yrotation Xrotation
								JOINT RightFingerBase
								{
									OFFSET 0.000000 0.000000 0.000000
									CHANNELS 3 Zrotation Yrotation Xrotation
									JOINT RightHandIndex1
									{
										OFFSET -0.622530 -0.000000 -0.000000
										CHANNELS 3 Zrotation Yrotation Xrotation
										End Site
										{
											OFFSET 0.000000 0.000000 0.000000
										}
									}
								}
								JOINT RThumb
								{
									OFFSET 0.000000 0.000000 0.000000
									CHANNELS 3 Zrotation Yrotation Xrotation
									End Site
									{
										OFFSET 0.000000 0.000000 0.000000
									}
								}
							}
						}
					}
				}
			}
		}
	}
}
MOTION
Frames: 11
Frame Time: 0.008333
8.757845 17.112739 -0.868915 -179.496275 8.201590 -171.774873 5.423771 2.567440 -0.690811 -27.228662 -12.428403 -30.106561 4.773005 14.059729 41.262173 0.376286 -2.024878 -11.715369 10.548500 -17.706900 -61.306200 -9.579160 -2.982336 -0.556730 -0.348010 26.088002 -36.741971 -13.082766 -20.650786 72.141649 -41.765842 25.794849 -160.070463 -0.361700 -3.863700 10.693600 -6.207681 -0.636765 11.943764 0.145995 -0.093246 -2.602232 3.412674 -0.292434 3.523864 -9.931027 -4.334991 -9.350245 12.181362 -5.436952 22.220141 4.914400 -1.378100 8.715100 -0.023703 -4.893616 2.080111 -60.509501 1.877661 27.601468 19.841059 -31.301990 -7.224358 -0.712683 1.300482 3.781361 41.817712 -19.147232 -17.914100 -7.125000 0.000000 0.000000 8.711100 3.237500 -8.303300 1.023087 4.614879 2.345003 64.215775 -13.554985 -3.476757 -7.277283 23.120799 -3.777332 0.735553 -0.838793 17.874711 -22.202456 -41.034294 15.406000 7.125000 0.000000 0.000000 19.871200 -71.579600 -12.725400 
8.716049 17.190222 -1.082286 178.882184 8.367312 -174.577340 5.380073 2.838252 -0.796383 -30.139711 -9.543198 -25.893393 4.396783 13.359644 39.365165 0.333826 -2.508332 -11.056817 10.499800 -17.681500 -61.146100 -9.416187 -3.272785 -0.542374 -1.963289 26.524862 -45.480107 -18.102284 -22.342327 85.527533 -43.356120 37.072645 130.288800 -1.757100 -8.340600 23.753400 -7.863981 -1.692656 14.646563 -0.003858 -1.372784 -2.166441 3.458323 -0.886207 3.754713 -10.284079 -3.082165 -8.373684 11.971262 -3.762067 21.588027 4.928700 -0.716100 8.030200 -0.022963 -5.093937 2.162617 -61.019064 -2.317396 26.363020 21.579727 -32.853378 -8.155472 -0.706637 1.310212 3.212984 43.205034 -19.626052 -19.158600 -7.125000 0.000000 0.000000 9.408600 2.117100 -9.180600 0.922182 4.743027 2.442593 65.746528 -17.252000 -3.569777 -7.550136 23.648292 -3.831803 0.712871 -0.907022 18.224220 -19.903243 -39.938070 13.487300 7.125000 0.000000 0.000000 21.120400 -69.821700 -12.733100 
8.704154 17.249378 -1.265971 177.939176 7.588535 -176.605055 5.354373 2.933992 -0.962986 -31.796762 -7.417072 -22.785664 4.211616 12.902364 38.270125 0.288206 -3.299145 -10.439411 10.374500 -17.615100 -60.732800 -9.342431 -3.152354 -0.347453 -3.344165 25.892801 -53.638706 -19.495094 -21.776094 91.237911 -11.107674 7.859212 64.342442 -4.885600 -13.253800 40.326100 -8.886195 -2.804264 17.131834 -0.089018 -2.713776 -1.789262 3.385751 -1.510044 4.022629 -9.946095 -2.080919 -8.538787 11.344746 -2.322781 21.442323 4.638100 -0.075100 7.824400 -0.018339 -5.262832 2.226220 -60.885580 -7.883504 24.943133 22.597754 -33.551578 -8.705898 -0.639562 1.363523 3.884488 43.769621 -20.508982 -20.261800 -7.125000 0.000000 0.000000 9.489600 0.736400 -9.498600 0.837501 4.939765 2.502926 67.612088 -20.626231 -4.673900 -7.703186 23.967002 -3.890574 0.655872 -0.981788 18.247898 -19.750094 -39.529618 13.227400 7.125000 0.000000 0.000000 20.665200 -69.325000 -12.222900 
8.723015 17.286244 -1.392643 177.825441 6.249813 -177.264818 5.384414 2.979395 -1.104448 -32.150709 -6.621556 -21.445082 4.204488 12.804189 38.106933 0.256240 -4.063895 -10.116592 10.528100 -17.696300 -61.239200 -9.418019 -3.160465 -0.054079 -1.617990 23.814916 -58.400784 -13.841115 -22.255664 75.126775 -0.706449 -12.951415 -27.563303 -11.443800 -18.145500 64.214600 -9.239539 -3.840996 19.052084 -0.044297 -3.988680 -1.586842 3.393313 -2.066391 3.970026 -9.559959 -1.193786 -8.424519 11.172280 -1.162856 20.840160 4.476200 0.458100 7.449200 0.018033 -5.456054 2.272774 -60.578479 -14.027930 23.846676 23.305170 -33.825688 -9.003184 -0.482765 1.418779 6.344036 42.134858 -19.876319 -18.723500 -7.125000 0.000000 0.000000 8.605500 2.058600 -8.386900 0.756059 5.193224 2.533817 69.915534 -24.052274 -6.094567 -8.035220 24.500129 -4.042306 0.596645 -1.072237 17.582259 -20.170482 -40.027212 13.593400 7.125000 0.000000 0.000000 20.710100 -69.786100 -12.462000 
8.716371 17.322038 -1.574721 178.059165 6.246836 -177.506768 5.370495 3.029657 -1.226774 -32.053254 -5.610009 -20.149930 4.047901 12.546869 37.334069 0.275452 -4.249893 -10.406277 10.585300 -17.726100 -61.427200 -9.499482 -3.249870 0.209489 -0.046585 23.989277 -62.594725 -8.200894 -19.963381 58.192464 -2.676153 -1.019149 -32.765456 -0.128200 2.307800 -6.357200 -9.138469 -4.582525 19.821997 -0.044244 -4.872393 -1.421138 3.118119 -2.442126 4.213776 -9.174759 -0.283105 -8.312034 10.835464 0.061608 20.474506 4.273900 1.021600 7.160800 0.073318 -5.600841 2.286941 -60.496063 -20.198022 22.016962 24.146938 -34.184478 -9.430759 -0.388300 1.477746 6.735695 41.950757 -20.680561 -19.254500 -7.125000 0.000000 0.000000 8.249900 1.048800 -8.183300 0.686154 5.387859 2.578248 71.606949 -26.775028 -8.786841 -7.325930 23.619383 -3.831807 0.469420 -1.121712 18.563181 -22.130454 -39.790042 14.776800 7.125000 0.000000 0.000000 17.900100 -70.097000 -10.854200 
8.699546 17.364262 -1.781554 178.381553 6.567074 -177.595633 5.370406 3.108747 -1.333119 -31.975538 -4.615424 -18.859538 3.881677 12.279501 36.519221 0.313980 -4.467623 -10.949962 10.581000 -17.723900 -61.413200 -9.643884 -3.454668 0.494850 1.117504 25.855008 -65.324210 -3.267094 -15.854003 40.598481 -2.833401 -2.343831 -35.053812 -0.585200 4.898300 -13.618700 -8.902678 -5.270143 20.333932 -0.044823 -5.727473 -1.338244 2.835812 -2.798056 4.344511 -8.899518 0.455021 -8.673289 10.520184 1.112748 20.386012 4.123900 1.511800 7.126300 0.134404 -5.691177 2.252573 -61.016484 -25.370675 20.889050 25.119217 -34.710651 -9.998294 -0.543655 1.490453 7.422749 45.848440 -17.181332 -18.948000 -7.125000 0.000000 0.000000 11.447800 3.887500 -10.868400 0.662154 5.586417 2.616241 72.652683 -29.539337 -11.380512 -6.595185 22.601219 -3.592287 0.348340 -1.122051 20.708590 -24.299151 -38.627805 15.823400 7.125000 0.000000 0.000000 13.678700 -69.659400 -8.123900 
8.696223 17.405093 -2.017216 179.184064 7.307200 -177.111253 5.589535 3.533677 -1.569112 -31.507148 -3.657819 -18.009863 3.736512 12.216253 35.980550 0.363403 -4.731567 -11.676143 10.547600 -17.706500 -61.303500 -10.287878 -4.860922 1.825005 4.784248 29.249889 -71.369438 -0.573247 -11.666623 30.447441 -4.203371 -24.078719 30.378078 -8.705600 -16.614500 55.066300 -8.279853 -5.791850 20.043289 -0.002952 -6.416600 -1.332592 2.628250 -2.983268 4.334447 -8.661937 1.213333 -8.393639 10.052864 2.145349 20.097142 3.899400 1.970800 6.893400 0.235305 -5.687666 2.200898 -62.240218 -29.771357 19.736265 27.615054 -36.516348 -11.467437 -0.512651 1.511989 4.804062 46.850217 -20.016599 -22.141000 -7.125000 0.000000 0.000000 11.267100 -0.234300 -11.538000 0.676334 5.823759 2.671390 73.425555 -32.488267 -13.699912 -6.091767 21.833105 -3.430559 0.338208 -1.128589 22.874937 -20.820779 -40.173628 13.970400 7.125000 0.000000 0.000000 20.227700 -70.046400 -12.279900 
8.697402 17.429741 -2.265738 -179.973419 7.380343 -176.816336 5.642822 3.694492 -1.724464 -30.853617 -3.018869 -17.143383 3.691556 12.208998 35.837163 0.431515 -4.940008 -12.571154 10.426600 -17.642800 -60.904800 -10.536343 -5.531829 2.596833 10.716142 31.518861 -76.152304 1.024281 -7.731419 19.642505 -5.934016 -27.452380 38.848061 -0.067300 -1.673700 4.604600 -7.397663 -6.455469 19.803611 0.089754 -7.258044 -1.380557 2.382198 -3.282648 4.244647 -8.818636 1.817698 -7.891403 9.845978 2.933491 19.735425 3.843900 2.297300 6.602100 0.316591 -5.730653 2.172042 -63.649310 -33.753538 19.710542 29.905794 -38.026169 -12.823358 -0.460010 1.533677 4.121596 47.380791 -21.439335 -23.764700 -7.125000 0.000000 0.000000 11.150700 -2.320500 -11.815500 0.701951 5.967552 2.696211 74.001845 -35.387176 -16.431376 -5.418274 20.738617 -3.203176 0.273979 -1.101839 26.102707 -20.152466 -40.108865 13.498600 7.125000 0.000000 0.000000 21.081500 -69.819800 -12.708000 
8.717014 17.450425 -2.546303 -179.735624 5.750433 -177.902606 5.509828 3.608497 -1.743815 -30.888123 -2.658197 -14.661551 3.693630 12.027616 35.653646 0.495650 -5.451951 -13.303461 10.395200 -17.626200 -60.801300 -10.224319 -5.241684 2.356603 12.257560 31.585345 -78.606862 0.749941 -7.649344 17.628250 -3.871592 -13.095157 25.914577 -8.012800 16.128600 -52.608700 -7.080291 -7.346092 20.767792 0.158435 -8.278864 -1.256806 2.214565 -3.719802 4.395985 -8.573986 2.024863 -8.182373 9.585669 3.266660 19.872010 3.705300 2.464900 6.696100 0.375791 -5.802670 2.176309 -64.669110 -38.272027 21.358496 31.328139 -38.701774 -13.559863 -0.389503 1.576550 5.330725 47.196368 -20.443556 -22.814000 -7.125000 0.000000 0.000000 11.264600 -1.065000 -11.698900 0.703152 6.106875 2.697770 75.363810 -37.925016 -20.364866 -4.501002 19.170811 -2.897745 0.153839 -1.100587 29.491840 -20.525702 -39.357078 13.500300 7.125000 0.000000 0.000000 19.653300 -69.241900 -11.571300 
8.757095 17.432206 -2.822474 179.867796 3.267789 -178.775348 5.431017 3.605073 -1.680185 -31.771782 -3.464394 -12.451411 3.771795 11.992671 35.880869 0.544027 -5.953161 -13.837010 10.254200 -17.550400 -60.334700 -9.958604 -5.167244 2.375134 7.962015 31.229390 -82.439104 0.678106 -6.951751 15.121274 -2.876071 -7.962765 21.274770 -12.892200 18.742900 -68.790400 -7.740776 -8.575835 21.639400 0.394077 -9.950964 -1.365373 3.112559 -4.554332 4.287558 -9.440926 2.638870 -7.865150 9.511172 4.176237 19.861251 3.829400 2.829000 6.546800 0.397019 -5.809663 2.243755 -66.824822 -42.430739 22.691863 31.966834 -38.737532 -13.834676 -0.291656 1.645520 6.975227 47.232494 -20.259713 -22.748800 -7.125000 0.000000 0.000000 11.280400 -0.972400 -11.697800 0.831949 6.077251 2.686591 74.754926 -40.348727 -22.332167 -3.586866 17.521655 -2.537987 0.115834 -0.994795 32.479589 -21.138132 -37.318792 13.309100 7.125000 0.000000 0.000000 16.629100 -67.644600 -9.154800 
8.803070 17.421811 -3.121257 -179.999592 0.744432 -179.730980 5.347790 3.480011 -1.668187 -32.038845 -4.379301 -9.815090 3.812835 11.868489 35.880725 0.563473 -6.342754 -14.006231 9.980300 -17.398800 -59.422700 -9.558250 -4.831089 1.856551 4.432179 30.595539 -85.687336 0.193976 -8.994977 19.708873 -0.675527 -1.775378 6.287487 -10.360100 17.607400 -60.685200 -6.619170 -6.321698 22.327482 0.779070 -11.364078 -1.427999 3.207444 -7.032888 4.081565 -8.971907 2.549630 -7.912157 9.330960 4.055962 19.831492 3.642100 2.806900 6.557300 0.506222 -5.794225 2.451598 -69.533143 -47.035947 27.531137 32.577031 -38.745287 -13.990368 -0.233264 1.710326 5.817794 46.994693 -20.709650 -23.023700 -7.125000 0.000000 0.000000 10.951200 -1.574400 -11.457100 0.816282 6.205002 2.622159 76.972666 -42.517888 -27.658311 -2.735836 15.754307 -2.292903 -0.020403 -1.026016 36.270615 -19.973475 -38.452718 12.840200 7.125000 0.000000 0.000000 19.387400 -68.291400 -10.998300 
